{
  "accessors": [
    {
      "bufferView": 2,
      "componentType": 5126,
      "count": 65532,
      "max": [
        24.903675079345703,
        25.382833480834961,
        20.751651763916016
      ],
      "min": [
        -24.964170455932617,
        -24.617555618286133,
        -20.995426177978516
      ],
      "type": "VEC3"
    },
    {
      "bufferView": 2,
      "byteOffset": 786384,
      "componentType": 5126,
      "count": 65532,
      "max": [
        0.99935472011566162,
        0.99976307153701782,
        0.99987494945526123
      ],
      "min": [
        -0.99935722351074219,
        -0.99976307153701782,
        -0.99987328052520752
      ],
      "type": "VEC3"
    },
    {
      "bufferView": 3,
      "componentType": 5126,
      "count": 65532,
      "max": [
        0.99955785274505615,
        0.99996435642242432,
        0.99965405464172363,
        1
      ],
      "min": [
        -0.9995577335357666,
        -0.99996435642242432,
        -0.99987250566482544,
        1
      ],
      "type": "VEC4"
    },
    {
      "bufferView": 1,
      "componentType": 5126,
      "count": 65532,
      "max": [
        0.95980000495910645,
        0.99989998340606689
      ],
      "min": [
        9.9999997473787516e-05,
        9.9999997473787516e-05
      ],
      "type": "VEC2"
    },
    {
      "bufferView": 0,
      "componentType": 5125,
      "count": 133986,
      "max": [
        65531
      ],
      "min": [
        0
      ],
      "type": "SCALAR"
    },
    {
      "bufferView": 2,
      "byteOffset": 1572768,
      "componentType": 5126,
      "count": 56840,
      "max": [
        24.903675079345703,
        25.382833480834961,
        20.751651763916016
      ],
      "min": [
        -24.964170455932617,
        -24.617555618286133,
        -20.995426177978516
      ],
      "type": "VEC3"
    },
    {
      "bufferView": 2,
      "byteOffset": 2254848,
      "componentType": 5126,
      "count": 56840,
      "max": [
        0.99949544668197632,
        0.99993705749511719,
        0.9996526837348938
      ],
      "min": [
        -0.99949544668197632,
        -0.99993705749511719,
        -0.9996526837348938
      ],
      "type": "VEC3"
    },
    {
      "bufferView": 3,
      "byteOffset": 1048512,
      "componentType": 5126,
      "count": 56840,
      "max": [
        0.99983739852905273,
        0.99995660781860352,
        0.99987363815307617,
        1
      ],
      "min": [
        -0.99971836805343628,
        -0.99965399503707886,
        -0.99987363815307617,
        1
      ],
      "type": "VEC4"
    },
    {
      "bufferView": 1,
      "byteOffset": 524256,
      "componentType": 5126,
      "count": 56840,
      "max": [
        0.71990001201629639,
        0.99980002641677856
      ],
      "min": [
        9.9999997473787516e-05,
        0.00019999999494757503
      ],
      "type": "VEC2"
    },
    {
      "bufferView": 0,
      "byteOffset": 535944,
      "componentType": 5125,
      "count": 106002,
      "max": [
        56839
      ],
      "min": [
        0
      ],
      "type": "SCALAR"
    }
  ],
  "asset": {
    "generator": "Sketchfab (OSG glTF plugin)",
    "version": "2.0"
  },
  "bufferViews": [
    {
      "buffer": 0,
      "byteLength": 959952,
      "byteOffset": 0,
      "name": "floatBufferViews",
      "target": 34963
    },
    {
      "buffer": 0,
      "byteLength": 978976,
      "byteOffset": 959952,
      "byteStride": 8,
      "name": "floatBufferViews",
      "target": 34962
    },
    {
      "buffer": 0,
      "byteLength": 2936928,
      "byteOffset": 1938928,
      "byteStride": 12,
      "name": "floatBufferViews",
      "target": 34962
    },
    {
      "buffer": 0,
      "byteLength": 1957952,
      "byteOffset": 4875856,
      "byteStride": 16,
      "name": "floatBufferViews",
      "target": 34962
    }
  ],
  "buffers": [
    {
      "byteLength": 6833808,
      "uri": "scene.bin"
    }
  ],
  "extensionsRequired": [
    "KHR_materials_pbrSpecularGlossiness"
  ],
  "extensionsUsed": [
    "KHR_materials_pbrSpecularGlossiness"
  ],
  "images": [
    {
      "uri": "textures/material_diffuse.png"
    }
  ],
  "materials": [
    {
      "doubleSided": true,
      "emissiveFactor": [
        0,
        0,
        0
      ],
      "extensions": {
        "KHR_materials_pbrSpecularGlossiness": {
          "diffuseFactor": [
            1,
            1,
            1,
            1
          ],
          "diffuseTexture": {
            "index": 0,
            "texCoord": 0
          },
          "glossinessFactor": 0,
          "specularFactor": [
            0.5,
            0.5,
            0.5
          ]
        }
      },
      "name": "material",
      "occlusionFactor": 1
    }
  ],
  "meshes": [
    {
      "primitives": [
        {
          "attributes": {
            "NORMAL": 1,
            "POSITION": 0,
            "TANGENT": 2,
            "TEXCOORD_0": 3
          },
          "indices": 4,
          "material": 0,
          "mode": 4
        }
      ]
    },
    {
      "primitives": [
        {
          "attributes": {
            "NORMAL": 6,
            "POSITION": 5,
            "TANGENT": 7,
            "TEXCOORD_0": 8
          },
          "indices": 9,
          "material": 0,
          "mode": 4
        }
      ]
    }
  ],
  "nodes": [
    {
      "children": [
        1
      ],
      "name": "RootNode (gltf orientation matrix)",
      "rotation": [
        -0.70710678118654746,
        -0,
        -0,
        0.70710678118654757
      ]
    },
    {
      "children": [
        2
      ],
      "name": "RootNode (model correction matrix)"
    },
    {
      "children": [
        5
      ],
      "name": "aizawa.obj.cleaner.materialmerger.gles"
    },
    {
      "mesh": 0,
      "name": ""
    },
    {
      "mesh": 1,
      "name": ""
    },
    {
      "children": [
        3,
        4
      ],
      "name": "Geode"
    }
  ],
  "samplers": [
    {
      "magFilter": 9729,
      "minFilter": 9987,
      "wrapS": 10497,
      "wrapT": 10497
    }
  ],
  "scene": 0,
  "scenes": [
    {
      "name": "OSG_Scene",
      "nodes": [
        0
      ]
    }
  ],
  "textures": [
    {
      "sampler": 0,
      "source": 0
    }
  ]
}

